PathFileType	4	(X/Y/Z)	pose_F01_0-83.trc
DataRate	CameraRate	NumFrames	NumMarkers	Units	OrigDataRate	OrigDataStartFrame	OrigNumFrames
30	30	9	21	m	30	62	83
Frame#	Time	CHip			RHip			RKnee			RAnkle			RBigToe			RSmallToe			RHeel			LHip			LKnee			LAnkle			LBigToe			LSmallToe			LHeel			Neck			Nose			RShoulder			RElbow			RWrist			LShoulder			LElbow			LWrist			
		X1	Y1	Z1	X2	Y2	Z2	X3	Y3	Z3	X4	Y4	Z4	X5	Y5	Z5	X6	Y6	Z6	X7	Y7	Z7	X8	Y8	Z8	X9	Y9	Z9	X10	Y10	Z10	X11	Y11	Z11	X12	Y12	Z12	X13	Y13	Z13	X14	Y14	Z14	X15	Y15	Z15	X16	Y16	Z16	X17	Y17	Z17	X18	Y18	Z18	X19	Y19	Z19	X20	Y20	Z20	X21	Y21	Z21	
62	2.066666666666667	-0.27520718248876785	1.8729600635915122	-0.5056371285562423	-0.27873761543990316	1.8699175386096418	-0.448404149305947	-0.2630463252796594	1.7187571626272753	-0.4278308745907491	-0.2728467891320813	1.5615633214239895	-0.35161893759989815	-0.23652181015712637	1.5210139521435564	-0.38216252082313823	-0.24464774149067256	1.5243020448680349	-0.34000723102168035	-0.28526695295838017	1.5532327520545905	-0.3415224491674559	-0.2688371702051643	1.8773419798092783	-0.564817265794325	-0.25999740459479886	1.7279146779306997	-0.566022152241776	-0.2776408575173325	1.5901653866408543	-0.5300710207597501	-0.24709316620420083	1.560573581093135	-0.5857698398995427	-0.25136175663703075	1.5673662515131368	-0.5993286973325499	-0.28242770922578236	1.5703177498188243	-0.5002780980547823	-0.2672015632034363	2.0298449500588642	-0.5122322809825768	-0.24053897884489936	2.0894469063575545	-0.5989935193831275	-0.27777441639319267	2.026538355998388	-0.4221329540567646	-0.2786151247906753	1.9462477651965535	-0.3414672400224166	-0.2346187393109251	1.9512649330959637	-0.3399505861395392	-0.25929016757976664	2.03382629783523	-0.6004428723668563	-0.26223795422388657	1.9592460633915367	-0.6183568130847412	-1.2049886003482615	1.8261004166562684	0.3106036737645129
63	2.1	-0.276349346287684	1.8730181130467027	-0.5087350339950272	-0.2810337594978223	1.868813014011037	-0.4547263390669007	-0.26136252526278103	1.7198734807967748	-0.4390250400983517	-0.27416258271957356	1.5627642924071536	-0.35472230207682304	-0.238545573410142	1.5214929682163036	-0.3801619581123509	-0.2448785049196014	1.5252211933663469	-0.339634277765647	-0.2849942832725361	1.5570117434379835	-0.3424582428058321	-0.2718871046942158	1.8773210213471045	-0.5657706439993406	-0.26168688611447477	1.7261562034893123	-0.5726490654846549	-0.27588933601645543	1.5884351776730514	-0.5317066160254129	-0.24822473769786482	1.5614102165642008	-0.5891195957600757	-0.2524438845898343	1.5679801303469039	-0.6025794516850829	-0.28360307872486534	1.5713589968301556	-0.5035431113901497	-0.26729590789466745	2.024838120955998	-0.5196927321823956	-0.23648743162347047	2.078426298176521	-0.6096106047872344	-0.2682914526139869	2.024102531564897	-0.4401011938892589	-0.2790228893157368	1.9427739889863687	-0.3641003952491883	-0.24324465440421505	1.911016412068289	-0.3270714964315495	-0.26287576292416215	2.025338473921291	-0.6006434591004006	-0.2691543653196391	1.945341507609198	-0.6098814254030293	-0.2401263762773914	1.8951942354690239	-0.6829614089675896
64	2.1333333333333333	-0.27777775530833115	1.8638987627124015	-0.5106973665835142	-0.28248690243537455	1.8596218518228351	-0.4566629540779177	-0.2537079096341304	1.7095177634413383	-0.464329904450424	-0.2719248421409062	1.5632964222333614	-0.3576310860635331	-0.2385859617222107	1.5237931833727085	-0.38078164488423893	-0.2464565446410343	1.5258971462940119	-0.3384810091620073	-0.2844430487610437	1.5594768508289498	-0.3438647889609379	-0.27311877863138484	1.8692103403495544	-0.5678785160284691	-0.25636100148938396	1.7262230588946952	-0.5826088143041354	-0.27494337190407836	1.5893834215106557	-0.528504423338157	-0.24600386049535314	1.5609450001492102	-0.5914754258432391	-0.2502546222064396	1.5675650885689778	-0.6048244525737867	-0.279770484418614	1.5731874455414634	-0.4991533744341868	-0.26878258897208224	2.0179749075199744	-0.5226571866978151	-0.22842327998339082	2.0712469628078245	-0.6180275224261501	-0.2692450644268987	2.0142039637729954	-0.44844508547833334	-0.2740521538488924	1.9334063024098145	-0.377520857146526	-0.251870569497505	1.8707678910406145	-0.31419240672355975	-0.26514130414497367	2.021712365546252	-0.5981993354557924	-0.27562255511990474	1.9419601301910063	-0.6028110304572052	-0.24932732364491633	1.889280431831167	-0.673147786127617
65	2.1666666666666665	-0.2783515738952497	1.8630213989628261	-0.5107617021051154	-0.282832025962326	1.8602915543145533	-0.4568938028428809	-0.25141395794992377	1.7099973653697074	-0.471246852344375	-0.2721583191075591	1.5647732216336956	-0.35752868289471973	-0.2400660823831484	1.5270037408415769	-0.379661007081833	-0.2472938563442869	1.5298395150373083	-0.34275867973942203	-0.2856943558643724	1.5603413321553066	-0.3469322889322175	-0.2739432794901643	1.8671535242467217	-0.5677735677006981	-0.2521031685840875	1.7236649188643252	-0.5867887804761474	-0.27561606318278203	1.590224914027254	-0.5322845393552732	-0.24601877856090415	1.5612553259115183	-0.5913209514784405	-0.25023588455785956	1.5675861016651824	-0.6047689717436414	-0.27819246512976975	1.5728836019784211	-0.5051078187424521	-0.2669779018100357	2.019401091295278	-0.52521642649518	-0.2258568233909753	2.067181496098964	-0.6091367787995996	-0.26741551304465677	2.015652822828907	-0.4511924785724499	-0.2813543457388652	1.9309102051803984	-0.36834451670233676	-0.27237771068788036	1.8591346448951362	-0.31093076231811334	-0.26526782715976494	2.022087936578496	-0.5987879981349143	-0.27602481584959965	1.939432157007861	-0.6025999916750218	-0.25361041659074773	1.8798676295197585	-0.664499288138461
66	2.2	-0.27528832059783337	1.8656079527195566	-0.5100736600638415	-0.2796643201137172	1.861469306828826	-0.45589432332510843	-0.2513232682512395	1.7098757541395577	-0.47129938370263935	-0.2726648901250188	1.5655636104771855	-0.35668563935976416	-0.23670435921421373	1.5216494600860249	-0.38281420566739716	-0.24421445189392807	1.5257150743487675	-0.34549866581679134	-0.28492744652967367	1.560242745238937	-0.34269682541292323	-0.2717562440885324	1.8685148347088998	-0.570007428453934	-0.24881196930828145	1.7252439168232712	-0.5860158594984625	-0.27559080035927597	1.589951617077797	-0.5322034195360492	-0.24398429011142278	1.561529467450462	-0.5935939505451459	-0.25019353096817887	1.567553420893862	-0.6048303461615449	-0.28203196533059816	1.5715040095402921	-0.5007780816211775	-0.2669806534934482	2.0208756526107674	-0.525761425669711	-0.22332064241069133	2.070468571835475	-0.5931758832202916	-0.26822768870335434	2.018290529681242	-0.4470058758244593	-0.28413994970117656	1.9331600109677631	-0.3843954885825783	-0.28541720214004646	1.8541149978471954	-0.3294985963221436	-0.2651371557011342	2.024644715250476	-0.5993184175801707	-0.27624915692525565	1.9414876559919194	-0.6032032024816556	-0.25622741071276084	1.8785268769296015	-0.6619234914828587
67	2.2333333333333334	-0.27599947062990315	1.8670805308567466	-0.5134964348366883	-0.27977597379378666	1.864408694121406	-0.45652624339814035	-0.24846907850911198	1.7143194407325546	-0.46168933225691183	-0.2730872036621801	1.5633397575420032	-0.35149860137999883	-0.2366930626576293	1.5215994480281485	-0.38279259186739373	-0.24389390279494613	1.5238662254875728	-0.34575917631011577	-0.283485828114656	1.5581599746544232	-0.3395484369552423	-0.27052010360210393	1.8713377906409643	-0.5757282985037449	-0.2500995256853991	1.7263058198268413	-0.5804285571870006	-0.27694053192374424	1.5890919175186882	-0.534974656708017	-0.24397126961630175	1.5615600144472868	-0.5934605233701651	-0.25022680270781816	1.5677212932043136	-0.6047846765567328	-0.28178928749606974	1.5725293298730434	-0.505777564779551	-0.26786893898827085	2.024954926520353	-0.529720188159807	-0.2246337522220195	2.0788776681553345	-0.5738455251720381	-0.2682157785589347	2.022630682404617	-0.4478724329845328	-0.28864761913477877	1.9401323737444829	-0.39065736243847554	-0.29276892167058155	1.8648062973021478	-0.3429795149948077	-0.26412133856568765	2.0276285343002596	-0.6054793000126767	-0.27486410286959984	1.94717438135107	-0.6094300988318101	-0.2659820376806704	1.8784869558642048	-0.6478842222795368
68	2.2666666666666666	-0.2712381700164395	1.8811462761774185	-0.511257705523484	-0.27683360264617696	1.8769872497726376	-0.45177826875425986	-0.24643893207833317	1.7223375626091098	-0.4466683314280826	-0.27342792861101695	1.565595890932175	-0.3511433767669998	-0.23814069324570683	1.5234723718482794	-0.3858378372373013	-0.24435845178625895	1.5263279406383683	-0.3455119905431123	-0.28371021573351735	1.5620662166826582	-0.33987666000543226	-0.2656874620951552	1.882881697141345	-0.5732273262437501	-0.255022659334461	1.731324285696301	-0.5672724119359583	-0.2762598007746635	1.591106874775717	-0.5314569909875705	-0.24445069755343923	1.5599195307944569	-0.5841818242155019	-0.25255801614499795	1.5686083263500596	-0.6025151740464543	-0.28052943743165004	1.571576708936612	-0.5025126437749049	-0.26478234186120264	2.0341671679782167	-0.5227723048563612	-0.22865363887986948	2.090837951393767	-0.5550081272768312	-0.27427792180632815	2.03427490757029	-0.4302504775436537	-0.28689388533827936	1.945448431447151	-0.3716940423566389	-0.29226648212241857	1.8748633175868394	-0.3361733210375069	-0.2546041986661308	2.0373538663681674	-0.6132112293034946	-0.27124237188034356	1.9496022598857434	-0.6106176176162702	-1.12689511072056	1.8189644016141449	0.23577205006464771
69	2.3	-0.2660141303088642	1.8797591317413893	-0.5122360890516655	-0.27468784353920295	1.8768497206411938	-0.4452891150481695	-0.25750333692337446	1.7250479626906616	-0.42582094837842577	-0.2739570844767381	1.566692045960173	-0.34611191243619466	-0.23810247858018563	1.52572702009822	-0.3859337482040605	-0.24496970847619226	1.5282466888045882	-0.34033408582775015	-0.2835469084935194	1.5610431587054407	-0.34003283965120723	-0.2533414152891685	1.8830937040167568	-0.5780414626322478	-0.25929409272809684	1.7314789483865463	-0.5626482503000998	-0.2752188892407421	1.5907661568407683	-0.5281944772175994	-0.24409553031041656	1.5611009733135834	-0.5846649458492083	-0.2514137915565097	1.5678738252376176	-0.5994303615244524	-0.28123198603481	1.575230987011961	-0.5022341538542693	-0.2653136524425116	2.039661684414755	-0.5178423366803044	-0.23400907631602416	2.102143670943194	-0.5486485464631913	-0.27515503947368153	2.035708789321625	-0.4247889691310457	-0.28914715552414616	1.9548745533351346	-0.36564264196682084	-0.2930661294375875	1.8841192808880658	-0.3184617023778596	-0.25127077863529246	2.040518213404227	-0.612218307625888	-0.2676206408910872	1.9520301384204168	-0.6118051364007302	-1.1341366789066727	1.8209768608068504	0.24380665984986039
70	2.3333333333333335	-0.26093998355397147	1.8825288077535074	-0.5137748644102242	-0.27340696476508747	1.8805461521533007	-0.44255350148143885	-0.26238448720119156	1.7275458348298767	-0.4159466857636081	-0.2774591309974422	1.5665790714952028	-0.34659960767604686	-0.23846660948315865	1.5286225254157635	-0.38173318678096657	-0.24486296953806777	1.5303631702216134	-0.34091696163364194	-0.28712464421303185	1.5615067702895424	-0.3405987544356057	-0.25215576458427147	1.8856797573079636	-0.5753095167975794	-0.2574715295315339	1.7327449859495156	-0.5562426024704767	-0.27542764158153815	1.5951763698974326	-0.5282061438102614	-0.24638502194016343	1.5625457492181123	-0.5822278746170856	-0.2517394051085395	1.5696643909616732	-0.5990539326444647	-0.2835667206959111	1.5771222651362442	-0.49987235569454946	-0.26423857397439987	2.0406291809139137	-0.5146528332636883	-0.23902411101648235	2.1045339595422377	-0.5476187315498935	-0.2759016492755844	2.037833828164445	-0.4200459661277719	-0.2960336828838339	1.9592707348279137	-0.3491876727529011	-0.2909718855149002	1.8902181093548889	-0.3072883199136047	-0.25098508438157574	2.043920420798413	-0.61253381867857	-0.26399890990183095	1.9544580169550902	-0.6129926551851903	-1.1713032564085668	1.8233902504810922	0.28854321629451307
